<?xml version="1.0" encoding="utf-8"?>
<!-- Generator: Adobe Illustrator 19.2.1, SVG Export Plug-In . SVG Version: 6.00 Build 0)  -->
<svg version="1.2" baseProfile="tiny" id="Layer_1" xmlns="http://www.w3.org/2000/svg" xmlns:xlink="http://www.w3.org/1999/xlink"
	 x="0px" y="0px" viewBox="0 0 92 92" xml:space="preserve">
<path fill="none" stroke="#231F20" stroke-width="3" stroke-linecap="round" stroke-miterlimit="10" d="M67.1,2.1L49.2,61.6
	c0,0.1-0.1,0.1-0.2,0c-0.8-3.1-6.8-28.5-6.8-28.4c0,0.1-25.8-0.1-28.9-0.2c-0.1,0-0.1-0.1,0-0.2C31.2,22.6,49.1,12.3,67,2
	C67.1,2,67.2,2,67.1,2.1z"/>
<g>
	<path d="M6.5,90.7H4.6V73.4h2.5l7.8,14.1V73.4h1.9v17.3h-2.3l-8-14.4V90.7z"/>
	<path d="M22.6,84.9c0,0.6,0.1,1.2,0.2,1.8c0.1,0.5,0.4,1,0.6,1.4c0.3,0.4,0.6,0.7,1,0.9c0.4,0.2,0.9,0.3,1.5,0.3
		c0.8,0,1.4-0.2,1.9-0.5c0.5-0.3,1-0.8,1.5-1.3l1.1,1.1c-0.5,0.7-1.1,1.3-1.9,1.7C27.9,90.8,27,91,26,91c-1.7,0-3-0.6-4-1.7
		s-1.4-2.7-1.4-4.9c0-1.1,0.1-2,0.4-2.8c0.3-0.8,0.6-1.5,1.1-2.1c0.5-0.6,1.1-1,1.7-1.3c0.7-0.3,1.4-0.4,2.2-0.4
		c0.7,0,1.3,0.1,1.8,0.3c0.5,0.2,1,0.5,1.4,0.9s0.7,0.9,0.9,1.6s0.3,1.4,0.3,2.3c0,0.4,0,0.7,0,1s-0.1,0.7-0.1,1H22.6z M26,79.5
		c-1,0-1.8,0.3-2.3,1c-0.6,0.7-0.9,1.6-1,2.9h6c0-0.1,0-0.2,0-0.4s0-0.2,0-0.3c0-0.6-0.1-1.1-0.2-1.6c-0.1-0.4-0.3-0.7-0.6-1
		c-0.2-0.2-0.5-0.4-0.8-0.5C26.7,79.5,26.4,79.5,26,79.5z"/>
	<path d="M41.7,88.5c0,0.3,0.1,0.6,0.3,0.8c0.2,0.2,0.5,0.2,1,0.1l0.1,1.3c-0.8,0.3-1.5,0.3-2,0.1c-0.5-0.2-0.8-0.7-1-1.3
		c-0.4,0.4-0.9,0.8-1.5,1.1S37.2,91,36.4,91c-1.2,0-2.1-0.3-2.8-0.9c-0.6-0.6-1-1.5-1-2.7c0-0.5,0.1-0.9,0.2-1.4
		c0.2-0.5,0.4-0.9,0.8-1.2c0.4-0.4,0.9-0.7,1.6-0.9c0.7-0.2,1.5-0.3,2.6-0.3h2v-1.4c0-1.8-0.8-2.7-2.5-2.7c-0.8,0-1.4,0.2-1.9,0.6
		c-0.5,0.4-0.8,0.9-1.1,1.6l-1.5-0.8c0.2-0.6,0.5-1,0.8-1.4c0.3-0.4,0.7-0.7,1.1-0.9c0.4-0.2,0.8-0.4,1.3-0.5
		c0.5-0.1,0.9-0.2,1.4-0.2c1.4,0,2.5,0.4,3.2,1.1c0.7,0.7,1,1.8,1,3.4V88.5z M39.8,85h-2.3c-2,0-3,0.8-3,2.3c0,0.7,0.2,1.2,0.5,1.6
		c0.4,0.4,0.9,0.6,1.7,0.6c0.7,0,1.3-0.2,1.8-0.5c0.5-0.3,1-0.7,1.3-1.1V85z"/>
	<path d="M47.3,78.1l0.1,1.8c0.2-0.2,0.4-0.5,0.7-0.7c0.2-0.2,0.5-0.5,0.8-0.7s0.7-0.4,1.1-0.5c0.4-0.1,0.8-0.2,1.3-0.2
		c0.1,0,0.2,0,0.3,0s0.2,0,0.4,0l-0.2,1.9c-0.1,0-0.2,0-0.3,0c-0.1,0-0.2,0-0.3,0c-0.5,0-0.9,0.1-1.3,0.2c-0.4,0.1-0.8,0.3-1.1,0.5
		c-0.3,0.2-0.6,0.4-0.8,0.6c-0.2,0.2-0.4,0.4-0.6,0.6v9.1h-1.9V78.1H47.3z"/>
	<path d="M60.9,78.1l0.1,1.3c0.4-0.4,0.9-0.7,1.5-1.1c0.6-0.3,1.4-0.5,2.2-0.5c0.8,0,1.5,0.2,2,0.5c0.5,0.3,0.9,0.8,1.2,1.4
		c0.6-0.7,1.2-1.2,1.9-1.5c0.6-0.3,1.3-0.5,2.2-0.5c0.7,0,1.2,0.1,1.7,0.3c0.5,0.2,0.8,0.5,1.2,0.9c0.3,0.4,0.5,0.9,0.7,1.5
		c0.1,0.6,0.2,1.2,0.2,1.9v8.3h-1.9v-8.1c0-1.1-0.2-1.9-0.6-2.4s-0.9-0.7-1.7-0.7c-0.4,0-0.7,0.1-1,0.2s-0.6,0.2-0.9,0.4
		c-0.3,0.2-0.5,0.3-0.7,0.5c-0.2,0.2-0.4,0.3-0.5,0.5v9.7h-1.9v-8.1c0-1.1-0.2-1.9-0.6-2.4s-0.9-0.7-1.7-0.7c-0.4,0-0.7,0.1-1,0.2
		s-0.6,0.2-0.9,0.4c-0.3,0.2-0.5,0.3-0.7,0.5c-0.2,0.2-0.4,0.3-0.5,0.5v9.7h-1.9V78.1H60.9z"/>
	<path d="M80.9,84.9c0,0.6,0.1,1.2,0.2,1.8c0.1,0.5,0.4,1,0.6,1.4s0.6,0.7,1,0.9c0.4,0.2,0.9,0.3,1.5,0.3c0.8,0,1.4-0.2,1.9-0.5
		c0.5-0.3,1-0.8,1.5-1.3l1.1,1.1c-0.5,0.7-1.2,1.3-1.9,1.7c-0.8,0.4-1.7,0.6-2.7,0.6c-1.7,0-3-0.6-4-1.7s-1.4-2.7-1.4-4.9
		c0-1.1,0.1-2,0.4-2.8c0.3-0.8,0.6-1.5,1.1-2.1c0.5-0.6,1.1-1,1.7-1.3c0.7-0.3,1.4-0.4,2.2-0.4c0.7,0,1.3,0.1,1.8,0.3s1,0.5,1.4,0.9
		c0.4,0.4,0.7,0.9,0.9,1.6c0.2,0.6,0.3,1.4,0.3,2.3c0,0.4,0,0.7,0,1s-0.1,0.7-0.1,1H80.9z M84.3,79.5c-1,0-1.8,0.3-2.3,1
		c-0.6,0.7-0.9,1.6-1,2.9h6c0-0.1,0-0.2,0-0.4s0-0.2,0-0.3c0-0.6-0.1-1.1-0.2-1.6s-0.3-0.7-0.6-1c-0.2-0.2-0.5-0.4-0.8-0.5
		C85,79.5,84.7,79.5,84.3,79.5z"/>
</g>
<g>
</g>
<g>
</g>
<g>
</g>
<g>
</g>
<g>
</g>
<g>
</g>
<g>
</g>
<g>
</g>
<g>
</g>
<g>
</g>
<g>
</g>
<g>
</g>
<g>
</g>
<g>
</g>
<g>
</g>
</svg>
